HIERARCHY
ROOT hip
{
	OFFSET 0.000000 0.000000 0.000000 
	CHANNELS 6 Xposition Yposition Zposition Xrotation Zrotation Yrotation
	JOINT abdomen
	{
		OFFSET 0.000000 3.402643 0.000000 
		CHANNELS 3 Xrotation Zrotation Yrotation
		JOINT chest
		{
			OFFSET 0.000000 8.438565 -0.680529 
			CHANNELS 3 Xrotation Zrotation Yrotation
			JOINT neck
			{
				OFFSET 0.000000 10.207942 -0.272212 
				CHANNELS 3 Xrotation Zrotation Yrotation
				JOINT head
				{
					OFFSET 0.000000 3.130431 0.000000 
					CHANNELS 3 Xrotation Zrotation Yrotation
					End Site
					{
						OFFSET 0.000000 3.130435 0.000000 
					}
				}
			}
			JOINT lCollar
			{
				OFFSET 3.470700 6.669187 -0.816635 
				CHANNELS 3 Yrotation Zrotation Xrotation
				JOINT lShldr
				{
					OFFSET 3.198488 0.000000 0.000000 
					CHANNELS 3 Zrotation Yrotation Xrotation
					JOINT lForeArm
					{
						OFFSET 10.139888 0.000000 0.000000 
						CHANNELS 3 Yrotation Zrotation Xrotation
						JOINT lHand
						{
							OFFSET 8.370511 0.000000 0.000000 
							CHANNELS 3 Zrotation Yrotation Xrotation
							End Site
							{
								OFFSET 4.083176 0.000000 0.000000 
							}
						}
					}
				}
			}
			JOINT rCollar
			{
				OFFSET -3.470700 6.669187 -0.816635 
				CHANNELS 3 Yrotation Zrotation Xrotation
				JOINT rShldr
				{
					OFFSET -3.198488 0.000000 0.000000 
					CHANNELS 3 Zrotation Yrotation Xrotation
					JOINT rForeArm
					{
						OFFSET -10.139888 0.000000 0.000000 
						CHANNELS 3 Yrotation Zrotation Xrotation
						JOINT rHand
						{
							OFFSET -8.370511 0.000000 0.000000 
							CHANNELS 3 Zrotation Yrotation Xrotation
							End Site
							{
								OFFSET -4.083176 0.000000 0.000000 
							}
						}
					}
				}
			}
		}
	}
	JOINT lThigh
	{
		OFFSET 5.308129 -1.633274 1.361059 
		CHANNELS 3 Xrotation Zrotation Yrotation
		JOINT lShin
		{
			OFFSET -2.041588 -20.007561 0.000000 
			CHANNELS 3 Xrotation Zrotation Yrotation
			JOINT lFoot
			{
				OFFSET 0.000000 -19.190928 -1.224953 
				CHANNELS 3 Xrotation Yrotation Zrotation
				End Site
				{
					OFFSET 0.000000 -2.449906 4.627600 
				}
			}
		}
	}
	JOINT rThigh
	{
		OFFSET -5.308129 -1.633274 1.361059 
		CHANNELS 3 Xrotation Zrotation Yrotation
		JOINT rShin
		{
			OFFSET 2.041588 -20.007561 0.000000 
			CHANNELS 3 Xrotation Zrotation Yrotation
			JOINT rFoot
			{
				OFFSET 0.000000 -19.190928 -1.224953 
				CHANNELS 3 Xrotation Yrotation Zrotation
				End Site
				{
					OFFSET 0.000000 -2.449906 4.627600 
				}
			}
		}
	}
}
MOTION
Frames: 11
Frame Time: 0.033333
-0.039077 43.998726 0.138594 -2.158203 -6.699219 1.074219 15.374802 -8.895908 -6.219275 20.927738 -0.224609 4.970665 21.751842 -17.260450 -6.764231 -40.312504 8.124999 58.281254 2.000000 -2.000000 0.000000 -50.800781 -9.648438 -60.009762 -115.219063 -2.896379 -62.145454 -7.887941 3.162635 -2.913898 -2.000000 2.000000 0.000000 70.019524 -27.792971 -18.544924 44.037708 0.847549 -0.670479 28.270601 4.748908 -1.343153 -26.012596 31.304914 2.013239 49.384384 -13.887441 2.429440 -22.209379 0.734527 -1.439064 -7.519100 -24.391573 -1.508922 27.443344 1.982124 3.440961 -15.009707 0.034477 0.029534 
-0.148561 43.979530 0.272781 -0.830078 -6.337891 2.880859 15.374802 -8.895908 -6.219275 20.058594 -0.087891 4.013657 20.396212 -16.895947 -6.176977 -39.863277 7.568359 57.598946 2.000000 -2.000000 0.000000 -50.419922 -10.371094 -59.562302 -115.038666 -2.895105 -61.920322 -8.226414 5.372911 -2.910756 -2.000000 2.000000 0.000000 69.599617 -28.359375 -18.266356 43.732727 0.832625 -0.583343 27.885975 4.662219 -1.382379 -27.827097 30.434166 1.929839 48.975132 -13.253178 1.342474 -22.229021 0.700502 -1.448901 -7.665349 -24.772974 -1.545354 27.689997 2.524203 0.787949 -16.269510 -0.039481 0.033422 
-0.398855 44.061089 0.398143 1.513672 -5.683593 6.141611 15.374802 -8.895908 -6.219275 18.750000 -0.244141 2.792969 18.240206 -16.132553 -5.237652 -38.427738 6.337891 55.761726 2.000000 -2.000000 0.000000 -49.628910 -11.884766 -57.822266 -114.691238 -2.894590 -61.832611 -8.749368 7.341003 -2.895207 -2.000000 2.000000 0.000000 69.921875 -29.218750 -18.735237 42.869610 0.833742 -0.436443 27.397738 4.373146 -1.417785 -30.413040 29.026592 1.824412 47.247570 -12.977695 -0.382323 -21.584013 0.739990 -1.481883 -7.274680 -25.475800 -1.614202 26.572678 3.716315 -3.691426 -16.972631 -0.046199 0.040551 
-0.828731 44.334534 0.576493 4.726563 -5.302734 10.868238 15.374802 -8.895908 -6.219275 16.953127 -0.830078 -0.205220 16.436666 -15.190491 -4.429179 -36.728516 5.341796 54.140629 2.000000 -2.000000 0.000000 -47.597656 -12.685547 -55.422066 -113.781487 -2.890620 -61.197182 -8.990672 8.320072 -2.879144 -2.000000 2.000000 0.000000 70.078125 -29.960936 -17.402344 41.415188 0.785005 0.715094 26.775278 3.823785 -1.470357 -33.288349 27.712612 1.718591 43.998409 -13.729895 -1.723354 -20.314598 0.733477 -1.465567 -5.868918 -25.838106 -1.642054 23.359062 5.425356 -10.447340 -17.099588 -0.038571 0.022646 
-1.376693 44.775867 0.923375 8.310547 -5.673828 16.210938 15.374802 -8.895908 -6.219275 14.912111 -1.982422 -3.193697 17.308355 -14.961456 -4.614245 -35.068363 5.224609 50.439453 2.000000 -2.000000 0.000000 -44.160156 -13.330078 -50.685848 -111.590118 -2.845001 -58.068535 -8.877051 9.940088 -2.912395 -2.000000 2.000000 0.000000 70.019524 -31.044920 -14.785155 40.029919 0.645420 3.201398 27.085316 3.004368 -1.444434 -35.866512 27.058575 1.686547 40.618866 -15.672094 -0.264954 -19.093557 0.747746 -1.492753 -3.916200 -25.242579 -1.575710 18.812271 6.761314 -18.723972 -17.197224 -0.052148 0.026060 
-1.874938 45.238796 1.515006 11.181641 -6.669921 21.035158 15.374802 -8.895908 -6.219275 13.271485 -3.798829 -5.283850 19.474209 -15.089375 -5.269034 -34.023445 5.488281 46.748043 2.000000 -2.000000 0.000000 -39.433590 -13.339845 -43.537411 -107.955101 -2.749514 -51.176987 -8.858702 12.576762 -2.954915 -2.000000 2.000000 0.000000 68.935547 -32.216797 -11.567704 39.854050 0.477110 6.116492 29.202269 2.474609 -1.276248 -37.678352 27.279873 1.670531 40.665813 -18.104809 4.060835 -18.849508 0.737803 -1.487856 -2.314506 -23.661995 -1.493248 15.358058 7.084692 -25.962080 -17.832001 -0.042011 0.009371 
-2.143331 45.509842 2.290819 12.705077 -7.822266 24.404299 15.374802 -8.895908 -6.219275 12.685549 -6.142578 -7.022530 22.474606 -15.640118 -6.371383 -33.330082 5.996093 44.228519 2.000000 -2.000000 0.000000 -34.023438 -11.611329 -35.734386 -103.085510 -2.485097 -39.938816 -8.560720 14.380501 -2.995495 -2.000000 2.000000 0.000000 65.927734 -32.519531 -7.246094 41.691399 0.275579 8.892492 30.791008 2.934382 -1.137347 -38.525612 28.310741 1.753224 47.018181 -19.114536 6.346865 -18.790911 0.739693 -1.486807 -2.421439 -21.821516 -1.350273 15.966674 6.841279 -29.178947 -19.140604 -0.043582 0.030287 
-2.130099 45.411495 3.084287 12.812500 -8.603203 26.054115 15.374802 -8.895908 -6.219275 13.779299 -8.681641 -8.360849 25.535746 -16.325602 -7.651160 -33.193359 6.308593 43.085941 2.000000 -2.000000 0.000000 -29.140627 -8.730469 -28.378908 -96.620689 -1.947210 -25.134216 -6.417682 14.576466 -3.156973 -2.000000 2.000000 0.000000 61.552734 -30.996096 -1.889796 45.229057 0.074507 11.472740 28.705513 3.876558 -1.311260 -37.699474 29.585384 1.868005 57.880642 -17.433277 3.558423 -18.029276 0.746420 -1.462046 -4.939411 -20.479084 -1.239438 22.348969 6.401804 -26.794851 -20.654278 -0.029995 -0.006869 
-1.971397 44.905396 3.719584 12.128906 -9.267578 26.951553 15.374802 -8.895908 -6.219275 16.582033 -10.810547 -9.474487 28.689161 -16.824694 -9.013773 -34.375000 6.455078 42.569458 2.000000 -2.000000 0.000000 -25.488281 -6.738281 -22.734375 -87.580872 -1.196473 -9.943559 -1.917519 13.985978 -3.445517 -2.000000 2.000000 0.000000 57.363281 -27.226561 3.569752 49.659443 -0.087806 13.419385 24.044962 3.866016 -1.683131 -35.125763 30.164944 1.920727 67.231140 -13.989209 -1.288333 -17.111269 0.720716 -1.489239 -10.174744 -19.353434 -1.154328 33.735489 4.718151 -19.813620 -21.845690 -0.030438 0.003749 
-1.861825 44.061089 4.112459 11.708984 -10.546875 28.505859 15.374802 -8.895908 -6.219275 20.556643 -11.738282 -10.812532 31.608374 -17.132051 -10.289416 -36.904297 6.835937 41.787109 2.000000 -2.000000 0.000000 -22.763674 -6.992188 -20.097660 -77.089371 -0.531962 1.512058 3.622176 14.727691 -3.799823 -2.000000 2.000000 0.000000 54.609375 -21.279297 8.964844 55.087612 -0.208397 14.546721 20.369770 2.769362 -1.981288 -32.603104 29.712870 1.880632 71.010277 -10.299331 -4.550047 -16.798611 0.740094 -1.489921 -17.684410 -17.801569 -1.034480 46.798786 1.296709 -11.576345 -22.558578 -0.039258 0.031922 
-1.897224 42.988918 4.304564 12.246093 -12.792969 31.230469 15.374802 -8.895908 -6.219275 25.556643 -11.152344 -12.179624 33.326588 -17.383837 -11.126438 -39.853519 7.783203 39.570316 2.000000 -2.000000 0.000000 -19.814453 -10.224608 -20.773220 -67.821396 -0.164482 7.848544 8.966168 18.078167 -4.178025 -2.000000 2.000000 0.000000 53.955074 -12.880860 14.121094 62.345947 -0.309294 15.362243 19.493118 1.518014 -2.048649 -31.918552 28.686638 1.777545 70.035782 -6.754447 -5.482020 -18.166096 0.717672 -1.478268 -26.742586 -16.002684 -0.904649 58.392502 -3.564547 -4.759218 -23.124968 -0.050531 0.013314 
